<?xml version="1.0" encoding="UTF-8"?>
<svg id="Livello_1" data-name="Livello 1" xmlns="http://www.w3.org/2000/svg" viewBox="0 0 9.24 9.24">
  <defs>
    <style>
      .cls-1 {
        fill: #ff8022;
      }
    </style>
  </defs>
  <path class="cls-1" d="M4.97,1.59c.36.59.38,1.89.38,2.34.43-.14,1.66-.52,2.34-.36.11.03.34.08.39.24s-.11.35-.18.43c-.45.53-1.68.95-2.1,1.09.26.36,1.01,1.42,1.06,2.12,0,.11.03.35-.11.45s-.36,0-.46-.04c-.64-.27-1.42-1.3-1.68-1.67-.26.36-1.04,1.4-1.68,1.67-.1.04-.32.14-.46.04s-.12-.34-.11-.45c.06-.69.8-1.75,1.06-2.12-.43-.14-1.65-.56-2.1-1.09-.07-.08-.23-.27-.18-.43s.29-.22.39-.24c.68-.16,1.91.22,2.34.36,0-.45.02-1.74.38-2.34.06-.09.18-.3.35-.3s.3.21.35.3Z"/>
</svg>