<?xml version="1.0" encoding="UTF-8"?>
<svg id="Livello_1" data-name="Livello 1" xmlns="http://www.w3.org/2000/svg" viewBox="0 0 56.31 50.61">
  <defs>
    <style>
      .cls-1 {
        fill: #fff;
        font-family: SpaceGrotesk-Medium, 'Space Grotesk';
        font-size: 22px;
        font-variation-settings: 'wght' 500;
        font-weight: 500;
      }

      .cls-2 {
        fill: #35ff12;
        stroke: #fff;
        stroke-dasharray: 3;
        stroke-linecap: square;
        stroke-linejoin: round;
      }
    </style>
  </defs>
  <path class="cls-2" d="M28.16,3.91h0c1.74,6.09,8.93,8.71,14.18,5.16h0s0,0,0,0c-2.58,5.79,1.24,12.41,7.54,13.07h0s0,0,0,0c-5.7,2.77-7.03,10.3-2.62,14.86h0s0,0,0,0c-6.15-1.54-12,3.38-11.56,9.7h0s0,0,0,0c-3.72-5.13-11.37-5.13-15.09,0h0s0,0,0,0c.45-6.32-5.41-11.24-11.56-9.7h0s0,0,0,0c4.41-4.56,3.08-12.08-2.62-14.86h0s0,0,0,0c6.3-.66,10.13-7.28,7.54-13.07h0s0,0,0,0c5.25,3.55,12.43.93,14.18-5.16h0Z"/>
  <text class="cls-1" transform="translate(13.56 34.23)"><tspan x="0" y="0">CV</tspan></text>
</svg>