<?xml version="1.0" encoding="UTF-8"?>
<svg id="Livello_1" data-name="Livello 1" xmlns="http://www.w3.org/2000/svg" viewBox="0 0 94.23 91.76">
  <defs>
    <style>
      .cls-1 { 
        fill: #78F94D;
      }

      .cls-2 {
        fill: #FC7D06;
      }
      
    </style>
  </defs>
  <path class="cls-1" d="M64.19,20.98c6.02,7.07-12.43,11.66-11.69,15.2,1.42,1.18,2.71,1.69,3.93,1.74,6.1.25,8.93-6.72,15.35-7.26,4.64-.39,9.72,3.01,11.72,7.49,3.23,7.25-1.97,16.57-6.73,17.35-4.48.73-7.58-5.37-14.9-5.89-1.29-.09-2.72.2-4.38,1.1.5,5.33,7.67,4.38,11.27,6.22,16.08,8.23-24.07,27.67-23.33,12.24.22-4.71,10.07-15.26-4.84-11.38-.9,4.61,2.82,7.58,1.9,12.38-2.18,11.33-41.75.4-26.56-13.53,5.38-4.93,11.76-2.53,16.89-4.11,5.14-1.58-2.08-5.17-5.73-4.83-4.21.39-8.94,7.44-13.58,5.52-11.04-4.56,3.97-30.2,19.36-20.41,1.36.87,5.92,8.26,7.5,3.24,2.72-8.64-12.41-6.67-14.45-9.3-1.28-1.65.03-2.95,1-4.13,5.3-6.48,31.66-8.22,37.26-1.65ZM52.27,41.93c-2.28-2.57-11.95-1.93-13.38,2.73-2.4,7.85,11.34,7.49,13.61,3.21.64-1.2.63-4.98-.23-5.94Z"/>
  <path class="cls-2" d="M52.27,41.93c.85.96.86,4.74.23,5.94-2.27,4.28-16,4.64-13.61-3.21,1.42-4.66,11.1-5.3,13.38-2.73Z"/>
</svg>