<?xml version="1.0" encoding="UTF-8"?>
<svg id="Livello_1" data-name="Livello 1" xmlns="http://www.w3.org/2000/svg" viewBox="0 0 94.23 91.76">
  <defs>
    <style>
      .cls-1 {
        fill:rgb(0, 0, 0);
      }
    </style>
  </defs>
  <path class="cls-1" d="M34.12,25.44l12.5,12.85c.09.09.25.09.33-.01l11.37-13.87-4.88,17.25c-.04.13.05.26.18.28l17.69,2.91-17.38,4.4c-.13.03-.2.17-.15.29l6.33,16.78-12.5-12.85c-.09-.09-.25-.09-.33.01l-11.37,13.87,4.88-17.25c.04-.13-.05-.26-.18-.28l-17.69-2.91,17.38-4.4c.13-.03.2-.17.15-.29l-6.33-16.78Z"/>
</svg>