<?xml version="1.0" encoding="UTF-8"?>
<svg id="Livello_1" data-name="Livello 1" xmlns="http://www.w3.org/2000/svg" viewBox="0 0 94.23 91.76">
  <defs>
    <style>
      .cls-1 {
        fill:rgb(255, 255, 255);
      }
    </style>
  </defs>
  <path class="cls-1" d="M44.76,38.11c-1.44,1.34-.12,4.2,1.57,4.79.95.33,2.25.05,3.37.44,8.04,2.8,8.09,13.71,0,16.54-1.69.59-5.03,0-5.64,2.66-.23,1.01.14,1.92.19,2.01.58,1.04,1.96,1.59,3.5,1.37,0,1.9.02,3.79.03,5.69-9.3.88-13.03-12.37-4.45-16.19,2.7-1.2,7.59-.43,6.25-4.94-.61-2.06-4.26-1.78-6.25-2.66-6.11-2.72-6.51-11.38-.95-14.93,2.41-1.54,6.39-.82,7.48-3.34.09-.21.59-1.25.16-2.2-.47-1.01-1.84-1.59-3.48-1.46,0-1.9-.02-3.79-.03-5.69,8.14-.95,12.35,9.49,6.38,14.95-2.53,2.31-6.91,1.83-8.13,2.97Z"/>
</svg>